<!-- Exported by Character Map UWP -->
<svg height="100%" viewBox="96 262 834 830" width="100%" xmlns="http://www.w3.org/2000/svg" xmlns:xlink="http://www.w3.org/1999/xlink">
  <path d="M512,261.12C587.093,261.12 656.555,279.893 720.384,317.44C784.213,354.987 834.901,405.675 872.448,469.504C909.995,533.333 928.768,602.795 928.768,677.888C928.768,752.981 909.995,822.443 872.448,886.272C834.901,950.101 784.213,1000.11 720.384,1036.29C656.555,1072.47 587.093,1090.56 512,1090.56C436.907,1090.56 367.445,1072.47 303.616,1036.29C239.787,1000.11 189.099,950.101 151.552,886.272C114.005,822.443 95.232,752.981 95.232,677.888C95.232,602.795 114.005,533.333 151.552,469.504C189.099,405.675 239.787,354.987 303.616,317.44C367.445,279.893 436.907,261.12 512,261.12ZM826.368,517.12C805.888,476.16 778.581,441.003 744.448,411.648C710.315,382.293 672.768,360.789 631.808,347.136C659.115,399.701 679.595,456.363 693.248,517.12ZM863.232,708.608C865.28,697.003 866.645,686.763 867.328,677.888C865.28,643.755 860.501,612.011 852.992,582.656L703.488,582.656C705.536,605.184 706.56,625.664 706.56,644.096C706.56,687.104 702.123,730.112 693.248,773.12L852.992,773.12C857.771,752.64 861.184,731.136 863.232,708.608ZM637.952,708.608L637.952,705.536C640,685.056 641.195,664.576 641.536,644.096C641.877,623.616 639.659,603.136 634.88,582.656L389.12,582.656C387.072,603.136 386.048,623.616 386.048,644.096C386.048,687.104 390.485,730.112 399.36,773.12L627.712,773.12C632.491,750.592 635.904,729.088 637.952,708.608ZM624.64,517.12C608.939,448.853 582.656,385.365 545.792,326.656L512,326.656L481.28,326.656C442.368,386.048 416.085,449.536 402.432,517.12ZM334.848,517.12C346.453,455.68 366.933,397.653 396.288,343.04C353.28,358.741 315.221,381.44 282.112,411.136C249.003,440.832 222.208,476.16 201.728,517.12ZM174.08,578.56C165.205,610.645 160.768,643.243 160.768,676.352C160.768,709.461 165.205,741.717 174.08,773.12L334.848,773.12C325.973,730.112 321.195,687.104 320.512,644.096C320.512,625.664 321.877,605.184 324.608,582.656L174.08,582.656ZM351.232,834.56L201.728,834.56C224.256,884.395 257.195,925.355 300.544,957.44C343.893,989.525 391.509,1011.37 443.392,1022.98C402.432,966.315 371.712,904.875 351.232,838.656ZM512,1005.57C552.96,955.733 584.704,900.096 607.232,838.656L419.84,838.656C440.32,900.096 471.04,955.733 512,1005.57ZM675.84,834.56C655.36,902.827 624.64,965.632 583.68,1022.98C636.245,1011.37 683.52,989.696 725.504,957.952C767.488,926.208 801.109,885.077 826.368,834.56Z" fill="#009F4D" fill-opacity="1">
  </path>
</svg>