<!-- Exported by Character Map UWP -->
<svg height="100%" viewBox="99 381 828 590" width="100%" xmlns="http://www.w3.org/2000/svg" xmlns:xlink="http://www.w3.org/1999/xlink">
  <path d="M334.848,454.656L334.848,542.72C334.848,563.2 327.68,580.949 313.344,595.968C299.008,610.987 281.6,617.813 261.12,616.448L172.032,616.448C151.552,617.813 134.144,610.987 119.808,595.968C105.472,580.949 98.304,563.2 98.304,542.72L98.304,454.656C98.304,434.176 105.472,416.768 119.808,402.432C134.144,388.096 151.552,380.928 172.032,380.928L261.12,380.928C281.6,380.928 299.008,388.096 313.344,402.432C327.68,416.768 334.848,434.176 334.848,454.656ZM334.848,808.96L334.848,897.024C334.848,917.504 327.68,934.912 313.344,949.248C299.008,963.584 281.6,970.752 261.12,970.752L172.032,970.752C151.552,970.752 134.144,963.584 119.808,949.248C105.472,934.912 98.304,917.504 98.304,897.024L98.304,808.96C98.304,788.48 105.472,771.072 119.808,756.736C134.144,742.4 151.552,735.232 172.032,735.232L261.12,735.232C281.6,735.232 299.008,742.4 313.344,756.736C327.68,771.072 334.848,788.48 334.848,808.96ZM393.216,454.656C393.216,434.176 400.725,416.768 415.744,402.432C430.763,388.096 448.171,380.928 467.968,380.928L556.032,380.928C576.512,380.928 593.92,388.096 608.256,402.432C622.592,416.768 629.76,434.176 629.76,454.656L629.76,542.72C629.76,563.2 622.592,580.949 608.256,595.968C593.92,610.987 576.512,617.813 556.032,616.448L467.968,616.448C448.171,617.813 430.763,610.987 415.744,595.968C400.725,580.949 393.216,563.2 393.216,542.72ZM629.76,808.96L629.76,897.024C629.76,917.504 622.592,934.912 608.256,949.248C593.92,963.584 576.512,970.752 556.032,970.752L467.968,970.752C448.171,970.752 430.763,963.584 415.744,949.248C400.725,934.912 393.216,917.504 393.216,897.024L393.216,808.96C393.216,788.48 400.725,771.072 415.744,756.736C430.763,742.4 448.171,735.232 467.968,735.232L556.032,735.232C576.512,735.232 593.92,742.4 608.256,756.736C622.592,771.072 629.76,788.48 629.76,808.96ZM689.152,454.656C689.152,434.176 696.32,416.768 710.656,402.432C724.992,388.096 742.4,380.928 762.88,380.928L851.968,380.928C872.448,380.928 889.856,388.096 904.192,402.432C918.528,416.768 925.696,434.176 925.696,454.656L925.696,542.72C925.696,563.2 918.528,580.949 904.192,595.968C889.856,610.987 872.448,617.813 851.968,616.448L762.88,616.448C742.4,617.813 724.992,610.987 710.656,595.968C696.32,580.949 689.152,563.2 689.152,542.72ZM925.696,808.96L925.696,897.024C925.696,917.504 918.528,934.912 904.192,949.248C889.856,963.584 872.448,970.752 851.968,970.752L762.88,970.752C742.4,970.752 724.992,963.584 710.656,949.248C696.32,934.912 689.152,917.504 689.152,897.024L689.152,808.96C689.152,788.48 696.32,771.072 710.656,756.736C724.992,742.4 742.4,735.232 762.88,735.232L851.968,735.232C872.448,735.232 889.856,742.4 904.192,756.736C918.528,771.072 925.696,788.48 925.696,808.96Z" fill="#009F4D" fill-opacity="1">
  </path>
</svg>