<?xml version="1.0" encoding="utf-8"?>
<!-- Generator: Adobe Illustrator 26.3.1, SVG Export Plug-In . SVG Version: 6.00 Build 0)  -->
<svg version="1.1" id="Layer_1" xmlns="http://www.w3.org/2000/svg" xmlns:xlink="http://www.w3.org/1999/xlink" x="0px" y="0px"
	 viewBox="0 0 100 100" style="enable-background:new 0 0 100 100;" xml:space="preserve">
<style type="text/css">
	.st0{fill:#009F4D;}
</style>
<g id="features">
	<path class="st0" d="M87.5,0H68.8H31.3H12.5c-1.2,0-2.1,0.9-2.1,2.1v95.8c0,1.1,0.9,2.1,2.1,2.1h75c1.2,0,2.1-0.9,2.1-2.1V2.1
		C89.6,0.9,88.7,0,87.5,0z M43.8,4.2c0,1.2,0.9,2.1,2.1,2.1h8.3c1.1,0,2.1-0.9,2.1-2.1H63l-1.4,4.2H38.4L37,4.2
		C37,4.2,43.8,4.2,43.8,4.2z M35.4,12.5h29.2l0.7-2.1h13.9v79.2H20.8V10.4h13.9L35.4,12.5z M85.4,95.8H14.6V4.2h18.1l0.7,2.1H16.7
		v87.5h66.7V6.2H66.7l0.7-2.1h18.1L85.4,95.8L85.4,95.8z"/>
	<path class="st0" d="M27.7,32.5l4.4,4.4l0,0c0.8,0.8,2.1,0.8,2.9,0l0,0l8.8-8.8c0,0,0,0,0,0c0.8-0.8,0.8-2.1,0-2.9
		c-0.8-0.8-2.1-0.8-2.9,0l0,0l-7.4,7.4l-2.9-2.9c0,0,0,0,0,0c-0.8-0.8-2.1-0.8-2.9,0C26.9,30.3,26.9,31.7,27.7,32.5L27.7,32.5z"/>
	<path class="st0" d="M27.7,53.3l4.4,4.4l0,0c0.8,0.8,2.1,0.8,2.9,0l0,0l8.8-8.8l0,0l0,0c0.8-0.8,0.8-2.1,0-2.9
		c-0.8-0.8-2.1-0.8-2.9,0c0,0,0,0,0,0l-7.4,7.4l-2.9-2.9c0,0,0,0,0,0c-0.8-0.8-2.1-0.8-2.9,0C26.9,51.2,26.9,52.5,27.7,53.3
		L27.7,53.3z"/>
	<path class="st0" d="M27.7,74.1l4.4,4.4l0,0c0.8,0.8,2.1,0.8,2.9,0l0,0l8.8-8.8l0,0l0,0c0.8-0.8,0.8-2.1,0-2.9
		c-0.8-0.8-2.1-0.8-2.9,0h0l-7.4,7.4l-2.9-2.9c0,0,0,0,0,0c-0.8-0.8-2.1-0.8-2.9,0C26.9,72,26.9,73.3,27.7,74.1L27.7,74.1z"/>
	<path class="st0" d="M52.1,33.3h18.7c1.2,0,2.1-0.9,2.1-2.1c0-1.2-0.9-2.1-2.1-2.1H52.1c-1.1,0-2.1,0.9-2.1,2.1
		C50,32.4,50.9,33.3,52.1,33.3z"/>
	<path class="st0" d="M52.1,54.2h18.7c1.2,0,2.1-0.9,2.1-2.1c0-1.2-0.9-2.1-2.1-2.1H52.1c-1.1,0-2.1,0.9-2.1,2.1
		C50,53.2,50.9,54.2,52.1,54.2z"/>
	<path class="st0" d="M52.1,75h18.7c1.2,0,2.1-0.9,2.1-2.1c0-1.2-0.9-2.1-2.1-2.1H52.1c-1.1,0-2.1,0.9-2.1,2.1
		C50,74.1,50.9,75,52.1,75z"/>
</g>
</svg>
