<?xml version="1.0" encoding="UTF-8"?>
<svg xmlns="http://www.w3.org/2000/svg" id="Calque_1" viewBox="0 0 576.1 180.7">
  <defs>
    <style>.cls-1{fill:#009e48;}.cls-2{fill:#d3d4d3;}</style>
  </defs>
  <g>
    <path class="cls-1" d="M235.5,77.3l-2.6-27.8c-1.8,.2-3.4,.3-4.7,.3s-2.8-.1-4.9-.3c-1.7,5.6-3.8,10.6-5.5,14.4l-12.1,26.6-1.3-2.9c-4.9-11.1-9.9-23.3-15.5-38.1-2.3,.2-3.8,.3-5.1,.3s-2.9-.1-4.7-.3l-3.7,28.3c-1.2,9.4-2.8,18.9-4.3,27.8,1.1-.1,2-.2,2.7-.2,.9,0,2.1,.1,3.6,.3,.4-6.8,.6-11.2,.8-13.2l3-28.7,2.2,4.4c6,12.3,11.3,24.6,16.3,37.6h.1c.9-.1,1.6-.1,2.1-.1s1.1,0,2.1,.1c5-12.7,10.6-25.6,16.5-38.3l2.2-4.7,2.7,27.1c.4,4.3,.9,9.6,1,15.9,2.6-.2,4.7-.3,6.5-.3,1.6,0,3.6,.1,6.1,.3-1.5-8-2.3-16.4-3.1-25.3l-.4-3.2Z"></path>
    <path class="cls-1" d="M268,65.2c-12.2,0-20.1,8.1-20.1,20.7s8,21,20.8,21c5.4,0,9.7-1,13.3-3.2,.4-1.2,.7-2.5,1.1-3.8-2.5,1.8-5.6,2.7-9.1,2.7-9.1,0-14.8-6.2-14.8-16.2v-1.7h26.3v-1.5c.1-12.3-5.5-18-17.5-18Zm7.6,14.3v3h-16.2v-2.8c0-12.2,5.9-13.5,8.5-13.5,2.9,0,7.9,1.7,7.9,12.9-.2,.1-.2,.2-.2,.4Z"></path>
    <path class="cls-1" d="M307.8,94.7v-1.8l.2-24.1h7.4v-2.6c-1.6,.1-3.2,.2-4.6,.2h-2.6v-6.8c0-2.9,.2-5.9,.5-8.9-3.2,2.2-6.8,3.9-11.4,5.2,.2,1.9,.2,4.1,.2,6.6v3.8h-2.3c-1,0-2.2-.1-3.4-.2,0,.5,.1,.9,.1,1.3s0,.8-.1,1.4h5.7v1.4c0,6.7,0,11.2-.1,13.6v1.7c0,1.2,0,2.6-.1,4.1,0,1.8-.1,3.9-.1,6.2,0,8.3,2.8,11.4,10.3,11.4,4,0,7.2-.5,10-1.6l.1-1.2c-1.5,.2-2.3,.2-2.6,.2-6.6-.1-7.2-4.2-7.2-9.9Z"></path>
    <path class="cls-1" d="M360,103.8c-4.6,0-4.6-5.1-4.6-7.2v-3l.1-15.5c0-8.6-4.6-12.8-14.1-12.8-5.2,0-10.2,1.9-13.9,5.1l.4,1.7c1.9-1.9,4.8-3,8-3,6.3,0,10,3.6,10,9.7,0,3.2-2.8,4-7.1,5.2-1.6,.5-3.6,1-5.8,1.8-7.4,2.5-9.9,5.2-9.9,10.8,0,6.6,3.8,10.4,10.4,10.4,4.8,0,8.2-1.4,10.7-4.5l1.4-1.7,1,1.9c1.4,2.7,3.9,4.2,7.2,4.2,2.8,0,5.7-1,8.2-2.7v-.5c-.8,0-1.4,.1-2,.1Zm-14.2-9.9c0,7.1-3.8,8.6-6.9,8.6-3.8,0-6.4-3.2-6.4-7.8,0-6.1,3.9-9.9,11.7-11.1l1.6-.3v10.6h0Z"></path>
    <path class="cls-1" d="M375.9,44.2c-1.6,0-3.6-.1-5.8-.4,.4,9.6,.6,19.5,.6,31.1,0,9.7-.2,19.8-.6,30.8,2.5-.3,4.3-.4,5.8-.4,1.4,0,3.3,.1,5.6,.4-.5-10.5-.7-20.7-.7-31.1s.3-21.6,.7-30.8c-2.4,.2-4.2,.4-5.6,.4Z"></path>
    <path class="cls-1" d="M440.6,49.3c-2.8,0-5.6,.1-8.3,.3-2.6,.1-5.1,.3-7.5,.3-1.5,0-3.3-.1-5.2-.3,.8,11,.9,20.8,.9,28.1s0,16.9-.9,28.1c2.4-.2,4.8-.3,6.6-.3,1.9,0,4,.1,6.6,.3-.6-6.4-.8-10.1-.8-11.4v-13.3l1.5,.1c1.1,.1,2,.1,3.1,.1,15.1,0,22.5-5.7,22.5-17.4,0-10.3-5.6-14.6-18.5-14.6Zm-7.3,28.5h-1.4v-19.6c0-.4,0-1.8,.1-4v-1.2l1.2-.1c1.6-.2,2.7-.3,3.3-.3,7.1,0,11,4.2,11,11.9,0,9.3-4.2,13.3-14.2,13.3Z"></path>
    <path class="cls-1" d="M483.9,65.2c-13.3,0-21,7.6-21,20.9s7.6,20.8,20.9,20.8,21-7.6,21-20.8c0-13.5-7.4-20.9-20.9-20.9Zm0,40.3c-7.9,0-9.5-7.7-9.5-19.4s1.6-19.5,9.5-19.5,9.5,7.8,9.5,19.5-1.6,19.4-9.5,19.4Z"></path>
    <path class="cls-1" d="M529.6,81l-.9-.3c-5.4-1.8-8.9-3-8.9-7.2,0-3.2,2.6-6.4,7.6-6.4,4.5,0,7.9,2.1,9.6,6,.5-1.8,1.1-3.7,1.8-5.8-3.8-1.5-7.2-2.2-10.7-2.2-9.4,0-15.2,4.8-15.2,12.7,0,6,2.5,9.3,9.2,12.1,1.5,.6,2.8,1.1,4,1.5,3.8,1.3,7.1,2.5,7.1,7,0,3.3-2.6,6.6-8.5,6.6-5.1,0-8.7-2.4-10.9-7.3-.5,2.4-1,4.7-1.4,7.1,3.5,1.3,7.8,2.1,12.6,2.1,10.2,0,15.9-5,15.9-14.1,0-6.3-2.5-8.9-11.3-11.8Z"></path>
    <path class="cls-1" d="M570.3,104.5c-6.8,0-7.3-4.1-7.3-9.8v-1.8l.2-24.1h7.4v-2.6c-1.6,.1-3.2,.2-4.6,.2h-2.6v-6.8c0-2.9,.2-5.9,.5-8.9-3.2,2.2-6.8,3.9-11.4,5.2,.2,1.9,.2,4.1,.2,6.6v3.8h-2.3c-1,0-2.2-.1-3.4-.2,0,.5,.1,.9,.1,1.3s0,.8-.1,1.4h5.7v1.4c0,6.7,0,11.2-.1,13.6v1.7c0,1.2,0,2.6-.1,4.1,0,1.8-.1,3.9-.1,6.2,0,8.3,2.8,11.4,10.3,11.4,4,0,7.2-.5,10-1.6l.1-1.2c-1.4,.1-2.2,.1-2.5,.1Z"></path>
    <rect class="cls-1" x="395.3" y="31.5" width="12.7" height="97.6"></rect>
  </g>
  <g>
    <path class="cls-2" d="M408,133.2v-2.5l-12.7,.1v6.3c7.4-.3,12.1-.5,28.6-3.8h0l-15.9-.1h0Z"></path>
    <path class="cls-2" d="M417.8,147.4l-9.8-2.1v-5.4c-10.8,1.2-21.2,.6-29.4,1.8v.2c1.6,1.7,11.1,3.5,16.7,4.3v24.8l12.7-13.8v-6.6h-6.5l.9-3.2h15.4Z"></path>
    <polygon class="cls-2" points="408 30.3 408 30 408 16.2 395.3 16.2 395.3 30.3 408 30.3"></polygon>
    <rect class="cls-2" x="390.8" y="4.3" width="20.9" height="7.4"></rect>
  </g>
  <g>
    <path d="M440.6,46.5c-2.9,0-5.7,.1-8.4,.3-2.6,.1-5,.2-7.4,.2-1.9,0-4.3-.2-6.6-.4l-1.7-.2,.1,1.7c.9,11.6,1,21.9,1,29.6s0,17.7-1,29.5l-.1,1.7,1.7-.1c2.9-.2,5.9-.4,8.1-.4s4.8,.2,8,.4l1.7,.1-.2-1.7c-.7-6.8-.9-11.4-.9-12.8v-10.3h1.8c16.8,0,25.3-6.8,25.3-20.3-.1-11.8-6.9-17.3-21.4-17.3Zm-4,34.7c-1,0-2,0-3.1-.1l-1.5-.1v13.3c0,1.3,.2,5,.8,11.4-2.6-.2-4.7-.3-6.6-.3-1.8,0-4.2,.1-6.6,.3,.9-11.2,.9-20.5,.9-28.1s-.1-17.1-.9-28.1c1.8,.2,3.6,.3,5.2,.3,2.5,0,4.9-.1,7.5-.3,2.7-.1,5.4-.3,8.3-.3,13,0,18.5,4.3,18.5,14.5,0,11.8-7.4,17.5-22.5,17.5Z"></path>
    <path d="M436.5,52.5c-.6,0-1.6,.1-3.3,.3l-1.2,.1v1.2c-.1,2.3-.1,3.6-.1,4v19.6h1.4c10,0,14.2-4,14.2-13.4,0-7.6-3.9-11.8-11-11.8Zm-1.8,22.4v-19.5c1-.1,1.5-.1,1.7-.1,5.6,0,8.2,2.9,8.2,9.1,.1,7.3-2.5,10.2-9.9,10.5Z"></path>
    <path d="M483.9,62.4c-14.9,0-23.8,8.9-23.8,23.7s8.9,23.6,23.7,23.6,23.8-8.8,23.8-23.6c.1-15.1-8.6-23.7-23.7-23.7Zm-.1,44.5c-13.3,0-20.9-7.6-20.9-20.8s7.7-20.9,21-20.9,20.9,7.4,20.9,20.9-7.6,20.8-21,20.8Z"></path>
    <path d="M483.9,66.6c-7.9,0-9.5,7.8-9.5,19.5s1.6,19.4,9.5,19.4,9.5-7.4,9.5-19.4-1.6-19.5-9.5-19.5Zm0,36c-4.1,0-6.7-2.8-6.7-16.6s2.4-16.7,6.7-16.7,6.7,2.7,6.7,16.7c0,13.9-2.5,16.6-6.7,16.6Z"></path>
    <path d="M530.5,78.3l-.9-.3c-5.2-1.7-7-2.4-7-4.5s2-3.5,4.8-3.5c4.2,0,6.9,2.4,7.8,6.7l.2,1.1h3.1l.5-1.7c.8-2.7,1.7-5.7,2.9-9.1l.4-1.2-1.2-.5c-4.6-1.9-8.8-2.9-13-2.9-10.9,0-18,6.1-18,15.5,0,7.2,3.2,11.4,10.9,14.7,1.6,.7,3,1.2,4.2,1.6,4,1.4,5.2,1.9,5.2,4.3s-2.2,3.8-5.7,3.8c-4.7,0-7.5-2.4-9.1-7.9l-.3-1h-3.3l-.8,3.7c-.6,2.9-1.2,5.6-1.7,8.4l-.2,1.1,1,.5c4,1.8,9.1,2.7,14.7,2.7,11.7,0,18.7-6.3,18.7-16.9,0-6.7-2.1-10.9-13.2-14.6Zm-5.4,28.5c-4.8,0-9.1-.7-12.6-2.1,.5-2.3,.9-4.7,1.4-7.1,2.2,4.9,5.8,7.3,10.9,7.3,5.9,0,8.5-3.3,8.5-6.6,0-4.5-3.3-5.7-7.1-7-1.2-.4-2.6-.9-4-1.5-6.7-2.8-9.2-6.1-9.2-12.1,0-7.8,5.8-12.7,15.2-12.7,3.5,0,6.9,.7,10.7,2.2-.7,2.1-1.3,4-1.8,5.8-1.7-3.8-5.1-6-9.6-6-5,0-7.6,3.2-7.6,6.4,0,4.2,3.5,5.4,8.9,7.2l.9,.3c8.8,2.9,11.3,5.5,11.3,11.7-.1,9.2-5.7,14.2-15.9,14.2Z"></path>
    <path d="M574.2,101.3c-2.4,.4-3.7,.4-3.9,.4-3.9,0-4.5-1-4.5-7l.2-23.1c2.1,0,4.2,0,6.1,.1l1.7,.1-.2-1.7c-.2-1.2-.2-2-.2-2.6s0-1.6,.2-2.7l.3-1.7-2.4,.2c-1.9,.1-3.6,.3-5.2,.3v-4c0-3.4,.3-6.8,.8-10.2l.2-1.6h-4l-.4,.3c-3.3,2.4-7.2,4.2-12.2,5.5l-1.2,.3,.1,1.2c.2,2.1,.3,4.6,.3,7.5v1c-1.2,0-2.5-.2-3.9-.3l-2.2-.2,.3,1.8c.2,1.1,.2,2,.2,2.7,0,.6-.1,1.5-.2,2.7l-.2,1.7,1.7-.1c1.1-.1,1.9-.1,2.5-.1h1.9c0,5.9,0,9.9-.1,12.2v1.7c0,1.2,0,2.5-.1,4,0,1.8-.1,3.9-.1,6.3,0,9.8,4,14.2,13.1,14.2,4.8,0,8.5-.7,11.9-2.1l.8-.3,.6-6.5h-1.9Zm-1.4,4.2c-2.8,1.1-6,1.6-10,1.6-7.5,0-10.3-3.1-10.3-11.4,0-2.3,.1-4.4,.1-6.2,0-1.5,.1-2.8,.1-4.1v-1.7c0-2.4,.1-6.9,.1-13.6v-1.4h-5.7c0-.5,.1-1,.1-1.4s0-.8-.1-1.3c1.2,.1,2.3,.2,3.4,.2h2.3v-3.8c0-2.5-.1-4.7-.2-6.6,4.5-1.3,8.2-3,11.4-5.2-.4,3-.5,5.9-.5,8.9v6.8h2.6c1.5,0,3-.1,4.6-.2v2.6h-7.4l-.2,24.1v1.8c0,5.8,.5,9.8,7.3,9.8,.3,0,1.1,0,2.6-.2l-.2,1.3Z"></path>
    <path d="M411.7,125.6V16.2h3.3V0h-27.6V16.2h4.1v117.3c-5.1,.2-11.6,.9-14.2,1.8l-2.5,.9v6.7l1,1.1c.8,.9,2.5,2.7,15.7,5v31.7l20.2-21.8v-5h15.9v-8.6l-14.3-3.1c3.2-.5,6-1.4,9-2.4,.9-.3,1.8-.6,2.7-.9l2.6-.8v-9.1h-15.9v-3.4Zm-20.9-113.9V4.3h20.9v7.4h-20.9Zm17.2,19.8v97.6h-12.7V31.5h12.7Zm-12.7-1.2v-14.2h12.7v14.2h-12.7Zm22.5,117.1h-15.5l-.9,3.2h6.5v6.6l-12.7,13.8v-24.8c-5.6-.8-15.1-2.6-16.7-4.3v-.2c8.2-1.2,18.6-.5,29.4-1.8v5.4l9.9,2.1Zm6.1-14.2h0c-16.5,3.4-21.2,3.6-28.6,3.9v-6.3l12.7-.1v2.5h15.9Z"></path>
    <path d="M238.6,80.2l-3.2-33.7-1.4,.2c-2.4,.3-4.3,.4-5.9,.4-1.4,0-3.3-.2-5.8-.4l-1.2-.1-.3,1.1c-1.6,5.9-3.9,11.2-5.7,15.2l-9.5,20.8c-4.6-10.6-9.3-22.1-14.5-36.1l-.4-1-1.1,.1c-2.7,.3-4.6,.4-5.9,.4-1.5,0-3.5-.2-5.8-.4l-1.4-.1-4,31.1c-1.3,10.1-3,20.2-4.6,29.5l-.3,1.9,1.9-.3c1.9-.3,3.3-.4,4.2-.4,1.1,0,2.7,.2,4.8,.4l1.5,.2,.1-1.5c.4-7.6,.7-12.5,.9-14.6l2-18.8c5.2,11,10,22.2,14.5,33.9l.4,1,2.2-.1c.9-.1,1.5-.1,2-.1,.6,0,1.5,0,2.8,.2l1.1,.1,.4-1c4.5-11.4,9.4-22.9,14.6-34.4l1.5,15.5,.1,1.3c.4,4.6,.9,10.3,1,17.2v1.5l1.5-.1c3.2-.3,5.7-.4,7.8-.4,1.9,0,4.3,.2,7.7,.4l1.9,.1-.4-1.8c-1.8-8.9-2.6-17.8-3.5-27.2Zm-5.8,25.2c-1.8,0-4,.1-6.5,.3-.1-6.3-.6-11.6-1-15.9l-2.7-27.1-2.2,4.7c-5.9,12.8-11.4,25.7-16.5,38.3-1-.1-1.6-.1-2.1-.1s-1.2,0-2.1,.1h-.1c-5-13-10.4-25.3-16.3-37.6l-2.2-4.4-3,28.7c-.1,2.1-.4,6.4-.8,13.2-1.5-.2-2.7-.3-3.6-.3-.7,0-1.6,.1-2.7,.2,1.5-8.9,3.1-18.3,4.3-27.8l3.7-28.3c1.8,.2,3.4,.3,4.7,.3,1.2,0,2.8-.1,5.1-.3,5.6,14.9,10.5,27,15.5,38.1l1.3,2.9,12.1-26.6c1.7-3.8,3.8-8.8,5.5-14.4,2,.2,3.6,.3,4.9,.3,1.4,0,2.9-.1,4.7-.3l2.6,27.8,.3,3.2c.9,8.9,1.7,17.3,3.1,25.3-2.4-.2-4.4-.3-6-.3Z"></path>
    <path d="M268,62.4c-13.7,0-22.9,9.5-22.9,23.5s9.3,23.8,23.7,23.8c6.1,0,11.1-1.3,15.3-3.9l.5-.3,.1-.5c.6-2.2,1.3-4.6,2.1-7.1l.4-1.2-3.2-1.4-.7,.8c-2.2,2.4-5.3,3.7-9.2,3.7-7.2,0-11.6-4.5-12-12.2h26.1l.1-1.3c.1-1.1,.1-2.1,.1-3,0-13.9-6.8-20.9-20.4-20.9Zm17.6,22.4h-26.3v1.7c0,10,5.7,16.2,14.8,16.2,3.5,0,6.6-.9,9.1-2.7-.4,1.3-.8,2.6-1.1,3.8-3.6,2.1-7.9,3.2-13.3,3.2-12.9,0-20.8-8-20.8-21s7.9-20.7,20.1-20.7,17.6,5.8,17.6,18.1c-.1,.4-.1,.9-.1,1.4Z"></path>
    <path d="M267.8,66.3c-2.5,0-8.5,1.3-8.5,13.5v2.8h16.2v-3.4c.1-11.3-4.8-12.9-7.7-12.9Zm4.9,13.4h-10.6c0-4,.7-10.6,5.6-10.6,4.2,0,5,5.5,5,10,.1,.1,.1,.3,0,.6Z"></path>
    <path d="M315.2,101.7c-3.9,0-4.5-1-4.5-7l.2-23.1c2.1,0,4.2,0,6.1,.1l1.7,.1-.2-1.7c-.2-1.2-.2-2-.2-2.6s0-1.6,.2-2.7l.3-1.7-2.4,.2c-1.9,.1-3.6,.3-5.2,.3v-4c0-3.4,.2-6.8,.8-10.2l.2-1.6h-4l-.4,.3c-3.3,2.4-7.2,4.2-12.2,5.5l-1.2,.3,.1,1.2c.2,2.1,.3,4.6,.3,7.5v1c-1.2,0-2.5-.2-3.9-.3l-2.2-.2,.3,1.8c.2,1.2,.2,2.1,.2,2.7s-.1,1.5-.2,2.7l-.2,1.7,1.7-.1c1.1-.1,1.9-.1,2.5-.1h1.9c0,5.9,0,9.9-.1,12.2v1.7c0,1.2,0,2.5-.1,4,0,1.8-.1,3.9-.1,6.3,0,9.8,4,14.2,13.1,14.2,4.8,0,8.5-.7,11.9-2.1l.8-.3,.6-6.5-1.8,.3c-2.6,.1-3.8,.1-4,.1Zm2.4,3.8c-2.8,1.1-6,1.6-10,1.6-7.5,0-10.3-3.1-10.3-11.4,0-2.3,.1-4.4,.1-6.2,0-1.5,.1-2.8,.1-4.1v-1.7c0-2.4,.1-6.9,.1-13.6v-1.4h-5.7c0-.5,.1-1,.1-1.4s0-.8-.1-1.3c1.2,.1,2.3,.2,3.4,.2h2.3v-3.8c0-2.5-.1-4.7-.2-6.6,4.5-1.3,8.2-3,11.4-5.2-.4,3-.5,5.9-.5,8.9v6.8h2.6c1.5,0,3-.1,4.6-.2v2.6h-7.5l-.2,24.1v1.8c0,5.8,.5,9.8,7.3,9.8,.3,0,1.1,0,2.6-.2l-.1,1.3Z"></path>
    <path d="M362.6,100.4c-1.2,.5-2.1,.6-2.6,.6-.8,0-1.8,0-1.8-4.4l.1-18.2v-.3c0-10.2-5.8-15.7-16.9-15.7-6.2,0-12.2,2.4-16.4,6.5l-.6,.6,1.8,6.7h2.3l.4-.7c1.3-2.3,3.8-3.6,7.1-3.6,4.7,0,7.2,2.4,7.2,6.8,0,.9-1,1.3-5.1,2.5-1.6,.5-3.6,1-6,1.8-7.1,2.4-11.9,5.6-11.9,13.5s5,13.2,13.2,13.2c4.9,0,8.6-1.3,11.6-4.1,2,2.6,5,4,8.6,4s7.5-1.4,10.6-3.8l.6-.5-.5-5.7-1.7,.8Zm-8.9,6.4c-3.3,0-5.8-1.4-7.2-4.2l-1-1.9-1.4,1.7c-2.5,3.1-5.9,4.5-10.7,4.5-6.6,0-10.4-3.8-10.4-10.4,0-5.6,2.5-8.3,9.9-10.8,2.3-.8,4.3-1.3,5.8-1.8,4.3-1.2,7.1-2,7.1-5.2,0-6.1-3.7-9.7-10-9.7-3.3,0-6.1,1.1-8,3l-.4-1.7c3.7-3.3,8.7-5.1,13.9-5.1,9.5,0,14.1,4.2,14.1,12.8l-.1,15.5v3c0,2.2,0,7.2,4.6,7.2,.6,0,1.2-.1,1.8-.2v.5c-2.3,1.8-5.3,2.8-8,2.8Z"></path>
    <path d="M332.5,94.7c0,4.6,2.6,7.8,6.4,7.8,3.1,0,6.9-1.5,6.9-8.6v-10.6l-1.6,.3c-7.8,1.2-11.7,4.9-11.7,11.1Zm10.5-.8c0,5.1-2.1,5.8-4.1,5.8-2.2,0-3.6-2-3.6-5,0-4.3,2.4-6.8,7.7-8v7.2Z"></path>
    <path d="M382.7,108.7l1.7,.2-.1-1.7c-.5-11.1-.8-21.8-.8-32.7s.4-22.8,.8-32.3l.1-1.7-1.6,.2c-2.5,.3-5.1,.6-6.9,.6-1.9,0-4.3-.2-7.1-.6l-1.7-.2,.1,1.7c.5,10,.7,20.4,.7,32.7,0,10.1-.2,20.7-.7,32.3l-.1,1.6,1.6-.2c3.2-.4,5.5-.6,7.1-.6,1.2,.1,3.3,.2,6.9,.7Zm-12.6-64.9c2.2,.3,4.2,.4,5.8,.4,1.4,0,3.2-.2,5.6-.4-.4,9.2-.7,19.9-.7,30.8s.2,20.6,.7,31.1c-2.2-.3-4.1-.4-5.6-.4s-3.4,.2-5.8,.4c.4-11,.6-21.1,.6-30.8,0-11.6-.2-21.6-.6-31.1Z"></path>
    <path d="M2.1,69.6h1.6c0,7.5-.1,11.8-.1,12.8,0,2.2-.1,5.1-.1,8.6,0,7.3,1.9,10.7,7.1,10.7,2.6,0,4.8-.4,6.9-1.7l.2-3.2c-1.3,.3-2.2,.4-2.5,.4-3.3,0-3.6-2.1-3.6-7v-1.5l.1-18.9c1.6,0,3.1,0,4.6,.1-.1-1.1-.1-1.8-.1-2.3s0-1.4,.1-2.4c-1.4,.2-2.6,.3-3.8,.3h-.7v-4.5c0-2.9,.2-5.8,.5-8.7h-1.3c-2.3,2.3-4.8,3.7-7.7,4.8,.2,2,.2,4.2,.2,6.4v2h-.5c-.9,0-1.9-.1-3-.3,.1,1,.2,1.8,.2,2.4s-.1,1.4-.2,2.4c1.3-.3,1.9-.4,2.1-.4Z"></path>
    <path d="M32.7,101.4c3.6,0,7-1.4,9.4-3.5,.4-2,.8-4,1.3-5.9h-1.2c-.8,1.2-3,3.5-6.2,3.5-5,0-8.2-4.6-8.2-12.3v-.2h16c.1-.9,.1-1.7,.1-2.4,0-11-3.8-16.3-11.6-16.3s-13.1,7.6-13.1,18.5c-.1,11.2,5,18.6,13.5,18.6Zm-5-23.8c0-6.6,1.6-10.1,4.3-10.1,2.5,0,3.9,3.1,3.9,9.6,0,.1-.1,.4-.1,.7v.9h-8.2l.1-1.1h0Z"></path>
    <path d="M61,101.4c2.8,0,5.6-.9,7.7-2.2,.3-1.9,.7-3.7,1-5.5l-.8-.2c-1,1.1-2.6,2.5-5.5,2.5-5,0-7.7-5-7.7-14.7,0-7.9,2.4-12.6,6-12.6,2.8,0,4.7,2.5,5.3,7.3l2.7,.1c.3-3,.6-6.2,1.3-9.4-2.7-1.5-7.1-2.4-10.1-2.4-8.4,0-14.1,7.5-14.1,18.8,.1,11.4,5.6,18.3,14.2,18.3Z"></path>
    <path d="M78.1,100.2c1.2,0,2.8,.1,4.8,.4-.3-7.8-.4-13.5-.4-17.2,0-8.1,.9-12.2,4.2-12.2,3.5,0,3.9,3.9,3.9,11.6,0,8.4-.1,14.4-.4,17.8,1.8-.2,3.4-.4,4.5-.4,.9,0,2.3,.1,4.2,.4-.4-5.5-.4-9.7-.4-12.6,0-5.2,.1-8.6,.1-10.2,0-8.9-2.1-13.4-8.1-13.4-3.5,0-5.9,1.5-8,5.2v-12.3c0-2.8,.1-6.5,.3-11.1-2,.2-3.6,.4-4.6,.4-.9,0-2.4-.1-4.3-.4,.5,8.3,.5,17.3,.5,27,0,10.7-.1,19.7-.5,27.4,1.9-.3,3.3-.4,4.2-.4Z"></path>
    <path d="M109.3,100.2c1.2,0,2.8,.1,4.7,.4-.3-7.8-.3-13.5-.3-17.2,0-8,.9-12.2,4.2-12.2,3.5,0,3.9,3.9,3.9,11.6,0,8.4-.2,14.4-.4,17.8,1.8-.2,3.4-.4,4.5-.4,.9,0,2.3,.1,4.2,.4-.4-5.4-.4-9.6-.4-12.4,0-5.3,.1-8.7,.1-10.2,0-8.9-2.2-13.5-8-13.5-3.7,0-6.1,1.7-8.5,5.9v-5.2c-1.8,.2-3.2,.3-4.3,.3-1,0-2.3-.1-3.9-.3,.3,5.7,.5,11.6,.5,17.7s-.2,11.8-.5,17.7c2.1-.3,3.5-.4,4.2-.4Z"></path>
    <path d="M148.1,101.4c8.5,0,13.7-6.8,13.7-18.6s-5-18.7-13.7-18.7-13.7,6.9-13.7,18.7c0,11.7,5,18.6,13.7,18.6Zm0-33.6c3.8,0,4.9,4.8,4.9,15.1s-1.1,15-4.9,15-4.9-4.6-4.9-15c0-10.3,1.1-15.1,4.9-15.1Z"></path>
    <rect x="1.8" y="105.5" width="160.5" height="4.1"></rect>
  </g>
</svg>
