<?xml version="1.0" encoding="utf-8"?>
<!-- Generator: Adobe Illustrator 26.3.1, SVG Export Plug-In . SVG Version: 6.00 Build 0)  -->
<svg version="1.1" id="Calque_1" xmlns="http://www.w3.org/2000/svg" xmlns:xlink="http://www.w3.org/1999/xlink" x="0px" y="0px"
	 viewBox="0 0 100 100" style="enable-background:new 0 0 100 100;" xml:space="preserve">
<style type="text/css">
	.st0{fill-rule:evenodd;clip-rule:evenodd;fill:#009F4D;}
</style>
<g id="_x36_4px-Line">
	<g id="tim-clock">
	</g>
	<path id="Shape" class="st0" d="M50,0C22.4,0,0,22.4,0,50s22.4,50,50,50s50-22.4,50-50S77.6,0,50,0L50,0z M50,96.3
		C24.5,96.3,3.7,75.5,3.7,50S24.5,3.7,50,3.7S96.3,24.5,96.3,50S75.5,96.3,50,96.3L50,96.3z"/>
	<path id="Shape_00000116216667986851895370000009195858945766794426_" class="st0" d="M48.3,50.6c0,0.1,0.1,0.2,0.2,0.3
		c0,0.1,0.1,0.2,0.1,0.2l18.5,22.2c0.4,0.4,0.9,0.7,1.4,0.7c0.4,0,0.8-0.1,1.2-0.4c0.8-0.7,0.9-1.8,0.2-2.6L51.9,49.3v-29
		c0-1-0.8-1.9-1.9-1.9s-1.9,0.8-1.9,1.9V50c0,0.1,0,0.2,0.1,0.2C48.2,50.4,48.2,50.5,48.3,50.6L48.3,50.6z"/>
	<path id="Shape_00000147183162423884802770000011933814078504531090_" class="st0" d="M50,14.8c1,0,1.9-0.8,1.9-1.9V9.3
		c0-1-0.8-1.9-1.9-1.9s-1.9,0.8-1.9,1.9V13C48.1,14,49,14.8,50,14.8L50,14.8z"/>
	<path id="Shape_00000089572197022798873700000008192012322202912424_" class="st0" d="M50,85.2c-1,0-1.9,0.8-1.9,1.9v3.7
		c0,1,0.8,1.9,1.9,1.9s1.9-0.8,1.9-1.9V87C51.9,86,51,85.2,50,85.2L50,85.2z"/>
	<path id="Shape_00000121996828658327871660000011495120868151116174_" class="st0" d="M31.2,13.8c-0.5-0.9-1.6-1.2-2.5-0.7
		c-0.9,0.5-1.2,1.6-0.7,2.5l1.9,3.2c0.3,0.6,1,0.9,1.6,0.9c0.3,0,0.6-0.1,0.9-0.2c0.9-0.5,1.2-1.6,0.7-2.5L31.2,13.8L31.2,13.8z"/>
	<path id="Shape_00000139987421287165870410000011611973642141939866_" class="st0" d="M70.1,81.1c-0.5-0.9-1.6-1.2-2.5-0.7
		c-0.9,0.5-1.2,1.6-0.7,2.5l1.9,3.2c0.3,0.6,1,0.9,1.6,0.9c0.3,0,0.6-0.1,0.9-0.2c0.9-0.5,1.2-1.6,0.7-2.5L70.1,81.1L70.1,81.1z"/>
	<path id="Shape_00000049181758626637216620000016601645693819701394_" class="st0" d="M18.9,29.9L15.6,28c-0.9-0.5-2-0.2-2.5,0.7
		c-0.5,0.9-0.2,2,0.7,2.5l3.2,1.9c0.3,0.2,0.6,0.2,0.9,0.2c0.6,0,1.3-0.3,1.6-0.9C20,31.5,19.7,30.4,18.9,29.9L18.9,29.9z"/>
	<path id="Shape_00000029743458673750093310000014714397893074028167_" class="st0" d="M86.2,68.8L83,66.9c-0.9-0.5-2-0.2-2.5,0.7
		c-0.5,0.9-0.2,2,0.7,2.5l3.2,1.9c0.3,0.2,0.6,0.2,0.9,0.2c0.6,0,1.3-0.3,1.6-0.9C87.4,70.4,87.1,69.3,86.2,68.8L86.2,68.8z"/>
	<path id="Shape_00000140734298551715831610000014219287430502528948_" class="st0" d="M14.8,50c0-1-0.8-1.9-1.9-1.9H9.3
		c-1,0-1.9,0.8-1.9,1.9s0.8,1.9,1.9,1.9H13C14,51.9,14.8,51,14.8,50L14.8,50z"/>
	<path id="Shape_00000098927810884697901590000009313963283760955561_" class="st0" d="M85.2,50c0,1,0.8,1.9,1.9,1.9h3.7
		c1,0,1.9-0.8,1.9-1.9s-0.8-1.9-1.9-1.9H87C86,48.1,85.2,49,85.2,50L85.2,50z"/>
	<path id="Shape_00000170986766256478164530000008575873973575905457_" class="st0" d="M17,66.9l-3.2,1.9c-0.9,0.5-1.2,1.6-0.7,2.5
		c0.3,0.6,1,0.9,1.6,0.9c0.3,0,0.6-0.1,0.9-0.2l3.2-1.9c0.9-0.5,1.2-1.6,0.7-2.5C19,66.7,17.9,66.4,17,66.9L17,66.9z"/>
	<path id="Shape_00000003097059805946076030000008205331351467446441_" class="st0" d="M80.5,32.4c0.3,0.6,1,0.9,1.6,0.9
		c0.3,0,0.6-0.1,0.9-0.2l3.2-1.9c0.9-0.5,1.2-1.6,0.7-2.5c-0.5-0.9-1.6-1.2-2.5-0.7l-3.2,1.9C80.3,30.4,80,31.5,80.5,32.4L80.5,32.4
		z"/>
	<path id="Shape_00000046326224615267169550000017540850206887416970_" class="st0" d="M32.4,80.5c-0.9-0.5-2-0.2-2.5,0.7L28,84.4
		c-0.5,0.9-0.2,2,0.7,2.5c0.3,0.2,0.6,0.2,0.9,0.2c0.6,0,1.3-0.3,1.6-0.9l1.9-3.2C33.6,82.1,33.3,81,32.4,80.5L32.4,80.5z"/>
	<path id="Shape_00000093893534456273986390000013264876510686961551_" class="st0" d="M71.3,13.1c-0.9-0.5-2-0.2-2.5,0.7L66.9,17
		c-0.5,0.9-0.2,2,0.7,2.5c0.3,0.2,0.6,0.2,0.9,0.2c0.6,0,1.3-0.3,1.6-0.9l1.9-3.2C72.5,14.8,72.2,13.6,71.3,13.1L71.3,13.1z"/>
</g>
</svg>
