<?xml version="1.0" encoding="utf-8"?>
<!-- Generator: Adobe Illustrator 26.3.1, SVG Export Plug-In . SVG Version: 6.00 Build 0)  -->
<svg version="1.1" id="Calque_1" xmlns="http://www.w3.org/2000/svg" xmlns:xlink="http://www.w3.org/1999/xlink" x="0px" y="0px"
	 viewBox="0 0 100 100" style="enable-background:new 0 0 100 100;" xml:space="preserve">
<style type="text/css">
	.st0{fill-rule:evenodd;clip-rule:evenodd;fill:#009F4D;}
	.st1{fill:#009F4D;}
</style>
<g id="_x36_4px-Line">
	<g id="con-digger">
	</g>
	<path id="Shape" class="st0" d="M47,26.9c-0.2-0.4-0.6-0.6-1.1-0.6h-8.7c-0.8,0-1.3,0.6-1.3,1.3v9.8c0,0.4,0.2,0.8,0.6,1.1
		l14.7,8.7c0.2,0.2,0.4,0.2,0.6,0.2c0.2,0,0.4,0,0.6-0.2c0.4-0.2,0.6-0.6,0.6-1.1v-7.4c0-0.2,0-0.4-0.2-0.6L47,26.9L47,26.9z
		 M51,43.9l-12.3-7.2v-7.9h6.6L51,39V43.9L51,43.9z"/>
	<path id="Shape_00000028287559914729223350000009441475111421665449_" class="st0" d="M79.5,80.5c0,0-8.9-2.3-8.9-13.6
		c0-0.8-0.6-1.3-1.3-1.3c-0.8,0-1.3,0.6-1.3,1.3c0,13,10.8,15.8,10.8,16c0.2,0,0.2,0,0.4,0c0.6,0,1.1-0.4,1.1-0.9
		C80.6,81.5,80.2,80.7,79.5,80.5L79.5,80.5z"/>
	<path id="Shape_00000057832002913300762230000005155049303386694790_" class="st0" d="M26.3,49.8c0,0.8,0.6,1.3,1.3,1.3h4.9
		c0.8,0,1.3-0.6,1.3-1.3c0-0.8-0.6-1.3-1.3-1.3h-4.9C26.8,48.4,26.3,49,26.3,49.8L26.3,49.8z"/>
	<path id="Shape_00000132055354798468511690000012898788239049951111_" class="st0" d="M32.5,53.3h-4.9c-0.8,0-1.3,0.6-1.3,1.3
		s0.6,1.3,1.3,1.3h4.9c0.8,0,1.3-0.6,1.3-1.3S33.2,53.3,32.5,53.3L32.5,53.3z"/>
	<path id="Shape_00000032635464395202464180000015749251570421721010_" class="st0" d="M32.5,58.4h-4.9c-0.8,0-1.3,0.6-1.3,1.3
		s0.6,1.3,1.3,1.3h4.9c0.8,0,1.3-0.6,1.3-1.3C33.8,58.8,33.2,58.4,32.5,58.4L32.5,58.4z"/>
	<path id="Shape_00000039844566724749886290000000080990172053438346_" class="st0" d="M84,44.3l-8.5-25.1c-0.2-0.6-0.2-0.9-0.6-1.5
		l0,0c0,0,0-0.2-0.2-0.2c-0.2-0.6-0.6-0.9-1.1-1.5c-1.1-1.1-2.6-1.9-4.3-1.9c-1.7,0-3.2,0.6-4.3,1.9L53.2,27.7
		c-0.4-0.8-0.6-1.3-0.8-1.7c-1.1-2.8-2.6-4.5-6.4-4.5h-9.8c-2.6,0-4.9,2.3-4.9,4.9v14.7h-4.9c-2.6,0-4.9,2.3-4.9,4.9v17.2
		c0,2.6,2.3,4.9,4.9,4.9h35.7c0.8,0,1.3-0.6,1.3-1.3v-7.4c0-0.4-0.2-0.8-0.6-1.1l-4.3-2.5V39.9l10.6-10.6l9.1,17.7L66.5,56
		c-0.4,0.4-0.6,0.9-0.4,1.5c0.2,0.6,0.8,0.8,1.3,0.8l2.1-0.4c2.1,1.9,5.5,2.8,8.7,2.8c2.6,0,5.3-0.6,7.2-2.1
		c1.5-1.1,2.5-2.8,2.6-4.9c0.4-2.8-0.9-6.4-3.2-8.9L84,44.3L84,44.3z M66.8,17.7c1.3-1.3,3.8-1.3,5.3,0c0.2,0.2,0.6,0.6,0.6,0.9
		l0.4,1.1c0,0.2,0,0.4,0,0.6c0,0.9-0.4,1.9-1.1,2.6l-14,14c-0.4-0.6-2.1-4-3.6-6.8L66.8,17.7L66.8,17.7z M60.8,65.8H26.3
		c-1.3,0-2.5-1.1-2.5-2.5V46.2c0-1.3,1.1-2.5,2.5-2.5h5.8l28.7,16.6V65.8L60.8,65.8z M33.8,41.6V26.4c0-1.3,1.1-2.5,2.5-2.5h9.8
		c2.5,0,3.2,0.8,4.2,3c0.9,2.3,4.9,9.4,5.7,10.9v16.8L33.8,41.6L33.8,41.6z M70.6,27.7l3-3c0.2-0.2,0.6-0.6,0.8-0.8l7.2,20.6
		l-1.7,1.1L70.6,27.7L70.6,27.7z M85.3,53.5c-0.2,1.3-0.8,2.5-1.7,3.2c-3.2,2.5-10.4,1.9-13-0.9l12.1-9.4l0,0
		C84.6,48.4,85.5,51.5,85.3,53.5L85.3,53.5z"/>
	<path id="Shape_00000170982105964435153890000016345734477374577040_" class="st0" d="M61.9,70.7H25.1c-3.4,0-6.2,2.8-6.2,6.2
		s2.8,6.2,6.2,6.2h37c3.4,0,6.2-2.8,6.2-6.2S65.3,70.7,61.9,70.7L61.9,70.7z M33.8,76.7c0-2.1,1.7-3.8,3.8-3.8
		c2.1,0,3.8,1.7,3.8,3.8c0,2.1-1.7,3.8-3.8,3.8C35.5,80.5,33.8,78.8,33.8,76.7L33.8,76.7z M32.5,80.5H30c0.8-0.9,1.3-2.3,1.3-3.8
		c0-1.5-0.6-2.6-1.3-3.8h2.5c-0.8,0.9-1.3,2.3-1.3,3.8C31.2,78.2,31.7,79.4,32.5,80.5L32.5,80.5z M42.3,73.2h2.5
		c-0.8,0.9-1.3,2.3-1.3,3.8c0,1.5,0.6,2.6,1.3,3.8h-2.5c0.8-0.9,1.3-2.3,1.3-3.8C43.6,75.4,43.1,74.1,42.3,73.2L42.3,73.2z
		 M46.1,76.7c0-2.1,1.7-3.8,3.8-3.8c2.1,0,3.8,1.7,3.8,3.8c0,2.1-1.7,3.8-3.8,3.8C47.8,80.5,46.1,78.8,46.1,76.7L46.1,76.7z
		 M54.6,73.2H57c-0.8,0.9-1.3,2.3-1.3,3.8c0,1.5,0.6,2.6,1.3,3.8h-2.5c0.8-0.9,1.3-2.3,1.3-3.8C55.9,75.4,55.3,74.1,54.6,73.2
		L54.6,73.2z M21.4,76.7c0-2.1,1.7-3.8,3.8-3.8s3.8,1.7,3.8,3.8c0,2.1-1.7,3.8-3.8,3.8S21.4,78.8,21.4,76.7L21.4,76.7z M61.9,80.5
		c-2.1,0-3.8-1.7-3.8-3.8c0-2.1,1.7-3.8,3.8-3.8c2.1,0,3.8,1.7,3.8,3.8C65.7,78.8,64,80.5,61.9,80.5L61.9,80.5z"/>
</g>
<path class="st1" d="M50.6,0.7c-27.5,0-50,22.5-50,50s22.5,50,50,50s50-22.5,50-50S78.1,0.7,50.6,0.7z M4.4,50.7
	c0-12.5,4.9-23.8,13-32.1l59.6,70c-7.5,5.3-16.6,8.3-26.4,8.3C25.1,96.9,4.4,76.2,4.4,50.7z M80,86.4L20,16
	C28.1,8.8,38.9,4.5,50.6,4.5c25.5,0,46.2,20.8,46.2,46.2C96.8,65,90.2,77.9,80,86.4z"/>
</svg>
