<?xml version="1.0" encoding="utf-8"?>
<!-- Generator: Adobe Illustrator 26.3.1, SVG Export Plug-In . SVG Version: 6.00 Build 0)  -->
<svg version="1.1" id="Calque_1" xmlns="http://www.w3.org/2000/svg" xmlns:xlink="http://www.w3.org/1999/xlink" x="0px" y="0px"
	 viewBox="0 0 100 100" style="enable-background:new 0 0 100 100;" xml:space="preserve">
<style type="text/css">
	.st0{fill-rule:evenodd;clip-rule:evenodd;fill:#009F4D;}
</style>
<g id="_x36_4px-Line">
	<g id="fil-tick">
	</g>
	<path id="Shape" class="st0" d="M69.1,38.6L40.7,66.9l-9.8-9.8c-0.7-0.7-1.9-0.7-2.6,0c-0.7,0.7-0.7,1.9,0,2.6l11.1,11.1
		c0.3,0.3,0.8,0.5,1.3,0.5c0.5,0,1-0.2,1.3-0.6l29.6-29.6c0.7-0.7,0.7-1.9,0-2.6C71,37.9,69.8,37.9,69.1,38.6L69.1,38.6z"/>
	<path id="Shape_00000139986274471228710120000001251705406900292527_" class="st0" d="M66.1,1.5C65.8,1.2,65.3,1,64.8,1H20.4
		C16.3,1,13,4.3,13,8.4v85.2c0,4.1,3.3,7.4,7.4,7.4h59.3c4.1,0,7.4-3.3,7.4-7.4V23.2c0-0.5-0.2-1-0.5-1.3L66.1,1.5L66.1,1.5z
		 M82.6,23.2h-14c-2,0-3.7-1.7-3.7-3.7v-14L82.6,23.2L82.6,23.2z M79.6,97.3H20.4c-2,0-3.7-1.7-3.7-3.7V8.4c0-2,1.7-3.7,3.7-3.7
		h40.7v14.8c0,4.1,3.3,7.4,7.4,7.4h14.8v66.7C83.3,95.6,81.7,97.3,79.6,97.3L79.6,97.3z"/>
</g>
</svg>
