<?xml version="1.0" encoding="utf-8"?>
<!-- Generator: Adobe Illustrator 26.3.1, SVG Export Plug-In . SVG Version: 6.00 Build 0)  -->
<svg version="1.1" id="Слой_1" xmlns="http://www.w3.org/2000/svg" xmlns:xlink="http://www.w3.org/1999/xlink" x="0px" y="0px"
	 viewBox="0 0 100 100" style="enable-background:new 0 0 100 100;" xml:space="preserve">
<style type="text/css">
	.st0{fill:#009F4D;}
</style>
<path id="sprout_5" class="st0" d="M88.1,71.8c-0.7-0.1-1.4-0.1-2.2-0.1c-2.9,0-6.7,0.4-11.5,1c-4.9-9.2-14.5-24.8-23.7-26.7
	c-0.1-2.7,0.2-5.3,0.9-7.9c0.3-1.2,0.7-2.5,1.2-3.7c2.5,1.6,5.4,2.4,8.2,2.4c4.6,0,9.1-2,12.1-5.9c8.3-10.9,4.7-31,4.7-31
	S58.3,1.5,49.6,11.7c-6.6-3.5-15.2-3.8-18-3.8c-0.6,0-0.9,0-0.9,0s-1,15.9,6.4,23.5c2.3,2.4,5.4,3.6,8.5,3.6c0.9,0,1.8-0.1,2.7-0.3
	c-0.3,0.8-0.5,1.6-0.7,2.3c-0.8,3-1.1,6.1-1.1,9.2C39,48.3,31.3,59,26.1,67.8c-1.7-0.1-3.3-0.2-4.9-0.3c-0.8,0-1.5-0.1-2.2-0.1
	C3.3,67.4,0,77.3,0,77.3v10.2c0,5.9,18,8.7,18.1,8.7C32.4,99.1,50,100,50,100s48.2-19,49.5-20.1C100.8,78.8,100.2,72.8,88.1,71.8z
	 M45.5,30.8c-2.1,0-4-0.8-5.5-2.3c-2.4-2.4-4.1-6.6-4.8-12.1c-0.2-1.5-0.3-3-0.4-4.2c1.7,0.1,3.8,0.4,6,0.8c2.5,0.5,4.7,1.3,6.5,2.2
	c-0.9,1.9-1.4,3.9-1.4,6c-0.7-0.8-1.1-1.3-1.2-1.3c-0.4-0.4-0.9-0.7-1.4-0.7c-1.1-0.1-2.1,0.8-2.2,2c0,0.6,0.2,1.1,0.5,1.5
	c2.3,2.6,4.8,5.5,6.4,7.7C47.2,30.7,46.4,30.8,45.5,30.8z M52.3,15c3.6-4.7,10.2-7.4,15.2-8.8C70,5.5,72.3,5,74.1,4.7
	c0.2,1.8,0.3,4.2,0.2,6.8c-0.1,5.1-1,12.3-4.6,16.9c-2.1,2.7-5.3,4.3-8.8,4.3c-2.3,0-4.5-0.7-6.4-2.1c0.6-1.1,1.3-2.2,2.1-3.3
	c4.2-6,9-9.4,9.1-9.4h0c0.6-0.4,1-1.2,0.9-2.1c-0.2-1.1-1.3-1.9-2.4-1.7c-0.3,0.1-0.6,0.2-0.8,0.3v0c-0.2,0.2-5.5,3.8-10,10.3
	c-0.6,0.9-1.2,1.7-1.7,2.6c-0.8-1.3-1.3-2.8-1.5-4.3C49.7,20.2,50.5,17.3,52.3,15z M32.8,64.9c3-4.6,5.9-8.2,8.6-10.7
	c2.9-2.7,5.4-4.1,7.4-4.1c0,0,0,0,0.1,0h0c2,0,4.5,1.4,7.4,4.1c2.7,2.5,5.6,6.1,8.6,10.7c2,3,3.7,6,5.1,8.6
	c-2.5,0.4-5.2,0.8-8.1,1.4c-1.4-3.9-10-5.6-10-5.6s-10.7-0.6-21-1.1C31.5,67,32.1,66,32.8,64.9z M74.3,85.9c-8.4,3.4-17.6,7-25,9.9
	c-3.7-0.2-18.4-1.3-30.5-3.7l-0.1,0l-0.1,0c0,0-3.5-0.6-7.3-1.7c-5.3-1.6-6.9-2.9-7.3-3.3v-8.9c0.3-0.6,1-1.6,2.2-2.7
	c1.2-1.1,2.7-2,4.5-2.6c2.3-0.9,5.1-1.3,8.2-1.3c0.6,0,1.3,0,2,0.1c11,0.6,27.7,1.5,30.3,1.6c0.5,0.1,1.8,0.4,3.2,0.9
	c1.4,0.5,2.2,1,2.8,1.4c-4.3,1-17.4,3.9-26.7,4c-1.1,0-2.1,0.9-2.1,2.1c0,1.2,0.9,2.1,2.1,2.1c4.9-0.1,11.4-0.8,19.1-2.3
	c4.5-0.9,8-1.7,9.4-2l3.5-0.6c11.4-2,18.9-3,23.3-3c0.7,0,1.3,0,1.8,0.1c3.7,0.3,5.8,1.1,6.8,1.7C90.5,79.4,82.9,82.5,74.3,85.9z"/>
</svg>
